<svg width="128" height="128" viewBox="0 0 128 128" fill="none" xmlns="http://www.w3.org/2000/svg">
<path d="M120.553 28.6947C116.379 30.5418 111.897 31.7933 107.186 32.3569C111.991 29.4769 115.68 24.9133 117.419 19.4787C112.923 22.1453 107.943 24.0867 102.64 25.1249C98.3965 20.6058 92.3503 17.7773 85.6551 17.7773C72.8036 17.7773 62.3805 28.1969 62.3805 41.0538C62.3805 42.8778 62.5903 44.6467 62.9814 46.3533C43.6303 45.3791 26.4872 36.1187 15.0045 22.0351C13.0027 25.4769 11.856 29.4733 11.856 33.7347C11.856 41.8093 15.9663 48.9365 22.2098 53.1089C18.3947 52.9862 14.8054 51.9409 11.6676 50.1969C11.664 50.2947 11.664 50.3925 11.664 50.4849C11.664 61.7649 19.6872 71.1747 30.3378 73.3116C28.3805 73.8413 26.3272 74.124 24.2063 74.124C22.7023 74.124 21.2427 73.9853 19.824 73.7133C22.7876 82.9578 31.3778 89.6885 41.5663 89.8733C33.5983 96.1169 23.5592 99.8396 12.6596 99.8396C10.784 99.8396 8.93337 99.7311 7.10938 99.5125C17.4098 106.12 29.6445 109.969 42.784 109.969C85.5983 109.969 109.008 74.5045 109.008 43.7489C109.008 42.7427 108.983 41.7329 108.939 40.7373C113.488 37.4538 117.435 33.3596 120.553 28.6947Z" fill="#1DA1F2"/>
</svg>
